<svg xmlns="http://www.w3.org/2000/svg" xmlns:xlink="http://www.w3.org/1999/xlink" width="86" height="86" viewBox="0 0 86 86">
  <defs>
    <linearGradient id="linear-gradient" y1="0.5" x2="1" y2="0.5" gradientUnits="objectBoundingBox">
      <stop offset="0" stop-color="#d9ae30"/>
      <stop offset="0.54" stop-color="#a67721"/>
      <stop offset="1" stop-color="#8c661f"/>
    </linearGradient>
  </defs>
  <g id="Gold_Star" data-name="Gold Star" transform="translate(-0.292 -0.246)">
    <path id="Path_4365" data-name="Path 4365" d="M74.159,36.921A28.924,28.924,0,1,0,23.193,55.634h0l.112.13c.069.078.13.156.2.225L45.26,80.779l21.8-24.86.138-.156.121-.138h0A28.769,28.769,0,0,0,74.159,36.921Z" transform="translate(-2.207 -1.079)" fill="url(#linear-gradient)"/>
    <rect id="Rectangle_2616" data-name="Rectangle 2616" width="86" height="86" transform="translate(0.292 0.246)" fill="none" opacity="0"/>
    <path id="Path_4366" data-name="Path 4366" d="M46.635,28.274l2,4.687.994,2.326,2.473.208,5.1.432L53.319,39.29l-1.9,1.626.553,2.421,1.159,4.972-4.367-2.62-2.119-1.323-2.127,1.28L40.141,48.24l1.15-4.9.553-2.456-1.876-1.634-3.883-3.364,5.1-.432,2.473-.208.968-2.283,2.006-4.687M45.3,20.8l-4.142,9.771a1.427,1.427,0,0,1-1.193.865L29.375,32.3a1.435,1.435,0,0,0-.821,2.508l8.1,7a1.444,1.444,0,0,1,.458,1.409L34.693,53.6a1.435,1.435,0,0,0,2.136,1.548l9.105-5.491a1.418,1.418,0,0,1,1.479,0l9.105,5.491A1.435,1.435,0,0,0,58.654,53.6L56.233,43.225a1.444,1.444,0,0,1,.458-1.409l8.05-6.97a1.435,1.435,0,0,0-.865-2.508l-10.593-.865a1.427,1.427,0,0,1-1.193-.865l-4.142-9.771A1.427,1.427,0,0,0,45.3,20.8Z" transform="translate(-3.797 -2.696)" fill="#fff"/>
  </g>
</svg>
