<svg id="Purple_X" data-name="Purple X" xmlns="http://www.w3.org/2000/svg" xmlns:xlink="http://www.w3.org/1999/xlink" width="86" height="86" viewBox="0 0 86 86">
  <defs>
    <clipPath id="clip-path">
      <rect id="Rectangle_2610" data-name="Rectangle 2610" width="86" height="86" fill="none"/>
    </clipPath>
  </defs>
  <g id="Group_4569" data-name="Group 4569" clip-path="url(#clip-path)">
    <path id="Path_4355" data-name="Path 4355" d="M74.159,36.926A28.926,28.926,0,1,0,23.194,55.635l-.009,0,.112.128c.066.076.133.151.2.227l21.762,24.8,21.767-24.86.135-.156.12-.136-.011,0a28.79,28.79,0,0,0,6.889-18.709" transform="translate(-2.206 -1.082)" fill="#8850bf"/>
    <path id="Path_4356" data-name="Path 4356" d="M60.519,26.994l-1-1a1.284,1.284,0,0,0-1.818,0l-9.363,9.362a1.284,1.284,0,0,1-1.818,0l-9.363-9.362a1.284,1.284,0,0,0-1.818,0l-1,1a1.284,1.284,0,0,0,0,1.818L43.7,38.175a1.286,1.286,0,0,1,0,1.818l-9.363,9.362a1.284,1.284,0,0,0,0,1.818l1,1a1.286,1.286,0,0,0,1.818,0l9.363-9.363a1.286,1.286,0,0,1,1.818,0L57.7,52.175a1.286,1.286,0,0,0,1.818,0l1-1a1.286,1.286,0,0,0,0-1.818l-9.363-9.362a1.286,1.286,0,0,1,0-1.818l9.363-9.363a1.286,1.286,0,0,0,0-1.818" transform="translate(-4.594 -3.466)" fill="#fff"/>
  </g>
</svg>
