<svg id="Blue_Double_Arrow" data-name="Blue Double Arrow" xmlns="http://www.w3.org/2000/svg" width="62.627" height="48.308" viewBox="0 0 62.627 48.308">
  <path id="angle-down" d="M48.308,4.16a1.612,1.612,0,0,1-.484,1.153L25.267,28.673a1.488,1.488,0,0,1-2.227,0L.484,5.313a1.617,1.617,0,0,1,0-2.306L2.9.5A1.488,1.488,0,0,1,5.131.5L24.154,20.2,43.177.5A1.488,1.488,0,0,1,45.4.5l2.42,2.506A1.612,1.612,0,0,1,48.308,4.16Z" transform="translate(0 48.308) rotate(-90)" fill="#133c8b"/>
  <path id="angle-down-2" data-name="angle-down" d="M48.308,4.16a1.612,1.612,0,0,1-.484,1.153L25.267,28.673a1.488,1.488,0,0,1-2.227,0L.484,5.313a1.617,1.617,0,0,1,0-2.306L2.9.5A1.488,1.488,0,0,1,5.131.5L24.154,20.2,43.177.5A1.488,1.488,0,0,1,45.4.5l2.42,2.506A1.612,1.612,0,0,1,48.308,4.16Z" transform="translate(33.453 48.308) rotate(-90)" fill="#133c8b"/>
</svg>
