<svg id="call_black_24dp" xmlns="http://www.w3.org/2000/svg" width="59.67" height="59.67" viewBox="0 0 59.67 59.67">
  <path id="Path_4210" data-name="Path 4210" d="M0,0H59.67V59.67H0Z" fill="none"/>
  <path id="Path_4211" data-name="Path 4211" d="M45.291,33.78a28.45,28.45,0,0,1-8.776-1.392,2.43,2.43,0,0,0-2.511.6l-3.9,4.9A37.749,37.749,0,0,1,12.97,20.9l4.848-4.127a2.537,2.537,0,0,0,.6-2.536,27.728,27.728,0,0,1-1.392-8.776A2.483,2.483,0,0,0,14.561,3h-8.6C4.616,3,3,3.6,3,5.461A42.644,42.644,0,0,0,45.291,47.752c1.765,0,2.461-1.566,2.461-2.934V36.241A2.483,2.483,0,0,0,45.291,33.78Z" transform="translate(4.459 4.459)" fill="#133c8b"/>
</svg>
