<svg id="camera" xmlns="http://www.w3.org/2000/svg" width="47.214" height="37.097" viewBox="0 0 47.214 37.097">
  <path id="Path_3947" data-name="Path 3947" d="M26.99,21.37a6.745,6.745,0,1,1-6.745-6.745A6.745,6.745,0,0,1,26.99,21.37Z" transform="translate(3.364 -1.135)" fill="#002a55"/>
  <path id="Path_3948" data-name="Path 3948" d="M44.406,12.37H38.189a1.533,1.533,0,0,1-1.013-.528L34.442,7.527a1.635,1.635,0,0,0-.144-.195A4.705,4.705,0,0,0,30.7,5.625h-9.7a4.7,4.7,0,0,0-3.591,1.709,1.636,1.636,0,0,0-.144.195L14.54,11.85a1.38,1.38,0,0,1-.908.528v-.844a1.686,1.686,0,0,0-1.686-1.686H9.415a1.686,1.686,0,0,0-1.686,1.686v.844H7.308a5.065,5.065,0,0,0-5.059,5.059V37.663a5.065,5.065,0,0,0,5.059,5.059H44.4a5.065,5.065,0,0,0,5.059-5.059V17.429A5.065,5.065,0,0,0,44.4,12.37ZM25.858,35.977A10.117,10.117,0,1,1,35.975,25.86,10.117,10.117,0,0,1,25.858,35.977Z" transform="translate(-2.249 -5.625)" fill="#002a55"/>
</svg>
