<svg xmlns="http://www.w3.org/2000/svg" xmlns:xlink="http://www.w3.org/1999/xlink" width="575" height="174" viewBox="0 0 575 174">
  <defs>
    <filter id="Rectangle_1642" x="0" y="0" width="575" height="174" filterUnits="userSpaceOnUse">
      <feOffset dy="5" input="SourceAlpha"/>
      <feGaussianBlur stdDeviation="7.5" result="blur"/>
      <feFlood flood-color="#133c8b" flood-opacity="0.122"/>
      <feComposite operator="in" in2="blur"/>
      <feComposite in="SourceGraphic"/>
    </filter>
  </defs>
  <g id="Checj_in_Button" data-name="Checj in Button" transform="translate(22.266 17.5)">
    <g id="Group_4118" data-name="Group 4118" transform="translate(0 0)">
      <g transform="matrix(1, 0, 0, 1, -22.27, -17.5)" filter="url(#Rectangle_1642)">
        <rect id="Rectangle_1642-2" data-name="Rectangle 1642" width="530" height="129" rx="24" transform="translate(22.5 17.5)" fill="#133c8b"/>
      </g>
      <text id="Century_City_Cape_Town_7441_South_Africa_Cape_Town_Western_Cape_7441_South_Africa" data-name="Century City Cape Town 7441, South Africa, Cape Town Western Cape, 7441, South Africa" transform="translate(222.234 78)" fill="#fff" font-size="42" font-family="Gilroy-Bold, Gilroy ☞" font-weight="700"><tspan x="-84" y="0">Check in</tspan></text>
    </g>
    <g id="White_Double_Arrow" data-name="White Double Arrow" transform="translate(425.474 40.406)">
      <path id="angle-down" d="M48.308,4.16a1.612,1.612,0,0,1-.484,1.153L25.267,28.673a1.488,1.488,0,0,1-2.227,0L.484,5.313a1.617,1.617,0,0,1,0-2.306L2.9.5A1.488,1.488,0,0,1,5.131.5L24.154,20.2,43.177.5A1.488,1.488,0,0,1,45.4.5l2.42,2.506A1.612,1.612,0,0,1,48.308,4.16Z" transform="translate(0 48.308) rotate(-90)" fill="#fff"/>
      <path id="angle-down-2" data-name="angle-down" d="M48.308,4.16a1.612,1.612,0,0,1-.484,1.153L25.267,28.673a1.488,1.488,0,0,1-2.227,0L.484,5.313a1.617,1.617,0,0,1,0-2.306L2.9.5A1.488,1.488,0,0,1,5.131.5L24.154,20.2,43.177.5A1.488,1.488,0,0,1,45.4.5l2.42,2.506A1.612,1.612,0,0,1,48.308,4.16Z" transform="translate(33.453 48.308) rotate(-90)" fill="#fff"/>
    </g>
  </g>
</svg>
