<svg id="contact_mail_black_24dp" xmlns="http://www.w3.org/2000/svg" width="53.355" height="53.355" viewBox="0 0 53.355 53.355">
  <path id="Path_4214" data-name="Path 4214" d="M0,0H53.355V53.355H0Z" fill="none"/>
  <path id="Path_4215" data-name="Path 4215" d="M0,0H53.355V53.355H0Z" fill="none"/>
  <path id="Path_4216" data-name="Path 4216" d="M46.685,14.116V11.892l-6.669,4.446-6.669-4.446v2.223l6.669,4.446ZM48.909,3H4.446A4.459,4.459,0,0,0,0,7.446V38.57a4.459,4.459,0,0,0,4.446,4.446H48.909a4.44,4.44,0,0,0,4.424-4.446l.022-31.124A4.459,4.459,0,0,0,48.909,3ZM17.785,9.669a6.669,6.669,0,1,1-6.669,6.669A6.66,6.66,0,0,1,17.785,9.669ZM31.124,36.347H4.446V34.124c0-4.446,8.892-6.892,13.339-6.892s13.339,2.445,13.339,6.892ZM48.909,23.008H31.124V9.669H48.909Z" transform="translate(0 3.669)" fill="#133c8b"/>
</svg>
