<svg id="exclamation-triangle-fill" xmlns="http://www.w3.org/2000/svg" width="47.452" height="41.517" viewBox="0 0 47.452 41.517">
  <path id="Path_3957" data-name="Path 3957" d="M26.633,3.93a3.35,3.35,0,0,0-5.812,0L.489,38.524a3.46,3.46,0,0,0,2.906,5.24H44.056a3.46,3.46,0,0,0,2.906-5.24ZM23.722,14.112a2.683,2.683,0,0,0-2.669,2.951l1.037,10.4a1.637,1.637,0,0,0,3.262,0l1.037-10.4a2.683,2.683,0,0,0-2.667-2.951ZM23.728,31.9a2.965,2.965,0,1,0,2.965,2.965A2.965,2.965,0,0,0,23.728,31.9Z" transform="translate(-0.001 -2.247)" fill="#002a55"/>
</svg>
