<svg id="file-earmark-text-fill" xmlns="http://www.w3.org/2000/svg" width="44.442" height="51.849" viewBox="0 0 44.442 51.849">
  <path id="Path_3960" data-name="Path 3960" d="M4.5,9.657A7.407,7.407,0,0,1,11.907,2.25h19.6a3.7,3.7,0,0,1,2.619,1.085L47.857,17.064a3.7,3.7,0,0,1,1.085,2.619V46.692A7.407,7.407,0,0,1,41.535,54.1H11.907A7.407,7.407,0,0,1,4.5,46.692Zm25.925,7.407V5.954L45.239,20.768H34.128A3.7,3.7,0,0,1,30.425,17.064ZM13.759,28.175a1.852,1.852,0,1,0,0,3.7H39.683a1.852,1.852,0,1,0,0-3.7Zm-1.852,9.259a1.852,1.852,0,0,1,1.852-1.852H39.683a1.852,1.852,0,1,1,0,3.7H13.759A1.852,1.852,0,0,1,11.907,37.433Zm0,7.407a1.852,1.852,0,0,1,1.852-1.852H28.573a1.852,1.852,0,0,1,0,3.7H13.759A1.852,1.852,0,0,1,11.907,44.84Z" transform="translate(-4.5 -2.25)" fill="#002a55"/>
</svg>
