<svg xmlns="http://www.w3.org/2000/svg" width="97" height="98" viewBox="0 0 97 98">
  <g id="Filter" transform="translate(-0.476 -0.227)">
    <rect id="Rectangle_1646" data-name="Rectangle 1646" width="97" height="98" rx="7" transform="translate(0.476 0.227)" fill="#133c8b"/>
    <g id="options" transform="translate(24.074 28.749)">
      <path id="Path_570" data-name="Path 570" d="M14.64,4.5a10.145,10.145,0,0,1,9.82,7.6H54.572v5.07H24.461A10.141,10.141,0,1,1,14.64,4.5Zm0,15.21a5.07,5.07,0,1,0-5.07-5.07A5.07,5.07,0,0,0,14.64,19.71Z" transform="translate(-4.5 -4.5)" fill="#fff"/>
      <path id="Path_571" data-name="Path 571" d="M44.432,38.27a10.145,10.145,0,0,1-9.82-7.6H4.5V25.6H34.612A10.141,10.141,0,1,1,44.432,38.27Zm0-5.07a5.07,5.07,0,1,0-5.07-5.07A5.07,5.07,0,0,0,44.432,33.2Z" transform="translate(-4.5 4.825)" fill="#fff"/>
    </g>
  </g>
</svg>
