<svg id="geo" xmlns="http://www.w3.org/2000/svg" width="31.797" height="51.227" viewBox="0 0 31.797 51.227">
  <path id="Path_3961" data-name="Path 3961" d="M32.448,12.849a10.6,10.6,0,1,1-10.6-10.6A10.6,10.6,0,0,1,32.448,12.849Z" transform="translate(-5.949 -2.25)" fill="#002a55"/>
  <path id="Path_3962" data-name="Path 3962" d="M16.875,9h3.533V40.8a1.766,1.766,0,1,1-3.533,0Z" transform="translate(-2.741 1.599)" fill="#002a55"/>
  <path id="Path_3963" data-name="Path 3963" d="M18.435,27.724a1.766,1.766,0,0,1-1.354,2.1,14.5,14.5,0,0,0-4.543,1.668c-1.066.678-1.131,1.134-1.131,1.2,0,.046.017.3.515.741A8.027,8.027,0,0,0,14.4,34.78a27.786,27.786,0,0,0,9.373,1.441,27.746,27.746,0,0,0,9.373-1.441,8.133,8.133,0,0,0,2.476-1.35c.495-.441.515-.7.515-.741,0-.063-.063-.52-1.131-1.2a14.44,14.44,0,0,0-4.543-1.668,1.766,1.766,0,1,1,.749-3.451,17.886,17.886,0,0,1,5.689,2.14,5.155,5.155,0,0,1,2.77,4.175,4.554,4.554,0,0,1-1.707,3.384,11.339,11.339,0,0,1-3.579,2.013,31.222,31.222,0,0,1-10.613,1.668,31.278,31.278,0,0,1-10.613-1.664,11.421,11.421,0,0,1-3.579-2.018,4.559,4.559,0,0,1-1.707-3.384,5.159,5.159,0,0,1,2.767-4.175,17.779,17.779,0,0,1,5.692-2.14,1.767,1.767,0,0,1,2.1,1.354Z" transform="translate(-7.874 11.475)" fill="#002a55"/>
</svg>
