<svg xmlns="http://www.w3.org/2000/svg" width="33.527" height="33.522" viewBox="0 0 33.527 33.522">
  <path id="location-arrow" d="M33.356,2.214,18.118,32.689a1.4,1.4,0,0,1-1.357.833,2.015,2.015,0,0,1-.358-.047,1.438,1.438,0,0,1-.846-.535,1.5,1.5,0,0,1-.32-.94V18.285H1.524a1.5,1.5,0,0,1-.94-.321,1.437,1.437,0,0,1-.535-.845,1.543,1.543,0,0,1,.095-1,1.435,1.435,0,0,1,.69-.714L31.308.167A1.43,1.43,0,0,1,32,0,1.416,1.416,0,0,1,33.07.453a1.417,1.417,0,0,1,.44.821A1.451,1.451,0,0,1,33.356,2.214Z" transform="translate(-0.005)" fill="#133c8b"/>
</svg>
