<svg xmlns="http://www.w3.org/2000/svg" xmlns:xlink="http://www.w3.org/1999/xlink" width="192" height="191" viewBox="0 0 192 191">
  <defs>
    <filter id="Path_4379" x="0" y="0" width="192" height="191" filterUnits="userSpaceOnUse">
      <feOffset dy="5" input="SourceAlpha"/>
      <feGaussianBlur stdDeviation="7.5" result="blur"/>
      <feFlood flood-opacity="0.078"/>
      <feComposite operator="in" in2="blur"/>
      <feComposite in="SourceGraphic"/>
    </filter>
  </defs>
  <g id="Re-Loop_Button" data-name="Re-Loop Button" transform="translate(-967.5 -1072)">
    <g transform="matrix(1, 0, 0, 1, 967.5, 1072)" filter="url(#Path_4379)">
      <g id="Path_4379-2" data-name="Path 4379" transform="translate(22.5 17.5)" fill="none">
        <path d="M7,0H140a7,7,0,0,1,7,7V139a7,7,0,0,1-7,7H7a7,7,0,0,1-7-7V7A7,7,0,0,1,7,0Z" stroke="none"/>
        <path d="M 7 5 C 5.897201538085938 5 5 5.897201538085938 5 7 L 5 139 C 5 140.1027984619141 5.897201538085938 141 7 141 L 140 141 C 141.1027984619141 141 142 140.1027984619141 142 139 L 142 7 C 142 5.897201538085938 141.1027984619141 5 140 5 L 7 5 M 7 0 L 140 0 C 143.8659973144531 0 147 3.134002685546875 147 7 L 147 139 C 147 142.8659973144531 143.8659973144531 146 140 146 L 7 146 C 3.134002685546875 146 0 142.8659973144531 0 139 L 0 7 C 0 3.134002685546875 3.134002685546875 0 7 0 Z" stroke="none" fill="#133c8b"/>
      </g>
    </g>
    <g id="restart_alt_black_24dp" transform="translate(1010.397 1107.158)">
      <g id="Group_4676" data-name="Group 4676">
        <path id="Path_4377" data-name="Path 4377" d="M0,0H106.205V106.2H0Z" fill="none"/>
      </g>
      <g id="Group_4678" data-name="Group 4678" transform="translate(17.701 11.063)">
        <g id="Group_4677" data-name="Group 4677">
          <path id="Path_4378" data-name="Path 4378" d="M12.85,48.965A26.459,26.459,0,0,1,20.639,30.2l-6.284-6.284A35.4,35.4,0,0,0,34.976,84.057V75.118A26.582,26.582,0,0,1,12.85,48.965Zm61.953,0a35.392,35.392,0,0,0-35.4-35.4c-.266,0-.531.044-.8.044l4.823-4.823L37.189,2.5,21.7,17.988,37.189,33.476l6.24-6.24-4.779-4.779c.266,0,.531-.044.752-.044a26.537,26.537,0,0,1,4.425,52.7v8.939A35.35,35.35,0,0,0,74.8,48.965Z" transform="translate(-4 -2.5)" fill="#133c8b"/>
        </g>
      </g>
    </g>
  </g>
</svg>
