<svg xmlns="http://www.w3.org/2000/svg" xmlns:xlink="http://www.w3.org/1999/xlink" width="202.718" height="202.718" viewBox="0 0 202.718 202.718">
  <defs>
    <filter id="teal_circle" x="0" y="0" width="202.718" height="202.718" filterUnits="userSpaceOnUse">
      <feOffset dy="3" input="SourceAlpha"/>
      <feGaussianBlur stdDeviation="6" result="blur"/>
      <feFlood flood-opacity="0.239"/>
      <feComposite operator="in" in2="blur"/>
      <feComposite in="SourceGraphic"/>
    </filter>
    <linearGradient id="linear-gradient" x1="0.5" y1="1" x2="0.5" gradientUnits="objectBoundingBox">
      <stop offset="0"/>
      <stop offset="0.14" stop-opacity="0.631"/>
      <stop offset="1" stop-opacity="0"/>
    </linearGradient>
    <linearGradient id="linear-gradient-2" x1="0.5" y1="1" x2="0.5" gradientUnits="objectBoundingBox">
      <stop offset="0" stop-color="#fff" stop-opacity="0"/>
      <stop offset="0.23" stop-color="#fff" stop-opacity="0.012"/>
      <stop offset="0.36" stop-color="#fff" stop-opacity="0.039"/>
      <stop offset="0.47" stop-color="#fff" stop-opacity="0.102"/>
      <stop offset="0.57" stop-color="#fff" stop-opacity="0.18"/>
      <stop offset="0.67" stop-color="#fff" stop-opacity="0.278"/>
      <stop offset="0.75" stop-color="#fff" stop-opacity="0.412"/>
      <stop offset="0.83" stop-color="#fff" stop-opacity="0.561"/>
      <stop offset="0.91" stop-color="#fff" stop-opacity="0.741"/>
      <stop offset="0.98" stop-color="#fff" stop-opacity="0.929"/>
      <stop offset="1" stop-color="#fff"/>
    </linearGradient>
  </defs>
  <g id="Round_Btn_Default_Dark" data-name="Round Btn Default Dark" transform="translate(18 15)">
    <g transform="matrix(1, 0, 0, 1, -18, -15)" filter="url(#teal_circle)">
      <path id="teal_circle-2" data-name="teal circle" d="M83.359,0A83.359,83.359,0,1,1,0,83.359,83.359,83.359,0,0,1,83.359,0Z" transform="translate(18 15)" fill="#133c8b"/>
    </g>
    <g id="ic_add_white" transform="translate(62.519 62.519)">
      <path id="ic_add_white-2" data-name="ic_add_white" d="M3465.679,1003.817h-17.862v17.863h-5.954v-17.863H3424v-5.954h17.862V980h5.954v17.863h17.862Z" transform="translate(-3424 -980)" fill="#fff"/>
    </g>
    <g id="Group_332" data-name="Group 332" transform="translate(0.001)" opacity="0.12">
      <path id="gradient_border_2" data-name="gradient border 2" d="M3486.358,960.488a81.87,81.87,0,1,1-81.871,81.87,81.87,81.87,0,0,1,81.871-81.87m0-1.489a83.359,83.359,0,1,0,83.359,83.359A83.359,83.359,0,0,0,3486.358,959Z" transform="translate(-3403 -959)" fill="url(#linear-gradient)"/>
      <path id="gradient_border_1" data-name="gradient border 1" d="M3486.358,960.488a81.87,81.87,0,1,1-81.871,81.87,81.87,81.87,0,0,1,81.871-81.87m0-1.489a83.359,83.359,0,1,0,83.359,83.359A83.359,83.359,0,0,0,3486.358,959Z" transform="translate(-3403 -959)" fill="url(#linear-gradient-2)"/>
    </g>
  </g>
</svg>
