<svg xmlns="http://www.w3.org/2000/svg" width="55.072" height="55.072" viewBox="0 0 55.072 55.072">
  <path id="sale" d="M48.188,27.536l6.884,6.884-8.6,3.442,1.721,10.326L37.862,46.467l-3.442,8.6-6.884-6.884-6.884,6.884-3.442-8.6L6.884,48.188,8.6,37.862,0,34.42l6.884-6.884L0,20.652,8.6,17.21,6.884,6.884,17.21,8.6,20.652,0l6.884,6.884L34.42,0l3.442,8.6L48.188,6.884,46.467,17.21l8.6,3.442ZM18.931,13.768a4.451,4.451,0,0,0-3.658,2.016,7.893,7.893,0,0,0-1.505,4.868,7.919,7.919,0,0,0,1.505,4.868,4.326,4.326,0,0,0,7.315,0,7.919,7.919,0,0,0,1.505-4.868,7.893,7.893,0,0,0-1.505-4.868,4.451,4.451,0,0,0-3.658-2.016Zm17.21,0H34.42a1.01,1.01,0,0,0-.4.081q-.188.081-.3.135a1.1,1.1,0,0,0-.3.3q-.188.242-.242.323t-.242.43q-.188.349-.242.457L17.479,39.583a.889.889,0,0,0,.161,1.183,1.766,1.766,0,0,0,1.291.538h1.721a1.808,1.808,0,0,0,.35-.028.856.856,0,0,0,.3-.135,1.632,1.632,0,0,0,.242-.188,1.831,1.831,0,0,0,.216-.3q.135-.214.188-.323t.216-.376q.162-.268.216-.376l15.22-24.094a.889.889,0,0,0-.161-1.183,1.766,1.766,0,0,0-1.291-.538Zm0,13.768a4.451,4.451,0,0,0-3.658,2.016,7.893,7.893,0,0,0-1.505,4.868,7.919,7.919,0,0,0,1.505,4.868,4.326,4.326,0,0,0,7.315,0A7.919,7.919,0,0,0,41.3,34.42,7.893,7.893,0,0,0,39.8,29.552,4.451,4.451,0,0,0,36.141,27.536Zm0,10.326q-.7,0-1.21-1.022a5.42,5.42,0,0,1-.511-2.448,5.246,5.246,0,0,1,.511-2.42q.511-.994,1.21-.994t1.21.994a5.246,5.246,0,0,1,.511,2.42,5.42,5.42,0,0,1-.511,2.448Q36.84,37.862,36.141,37.862ZM18.931,24.094q-.7,0-1.21-1.022a5.42,5.42,0,0,1-.511-2.448,5.246,5.246,0,0,1,.511-2.42q.511-.994,1.21-.994t1.21.994a5.246,5.246,0,0,1,.511,2.42,5.42,5.42,0,0,1-.511,2.448Q19.63,24.094,18.931,24.094Z" fill="#002a55"/>
</svg>
