<svg id="calendar-event-fill" xmlns="http://www.w3.org/2000/svg" width="59.542" height="59.542" viewBox="0 0 59.542 59.542">
  <path id="Path_3942" data-name="Path 3942" d="M14.885,1.861a1.861,1.861,0,1,0-3.721,0V3.721H7.443A7.443,7.443,0,0,0,0,11.164v3.721H59.542V11.164A7.443,7.443,0,0,0,52.1,3.721H48.378V1.861a1.861,1.861,0,1,0-3.721,0V3.721H14.885ZM0,18.607H59.542V52.1A7.443,7.443,0,0,1,52.1,59.542H7.443A7.443,7.443,0,0,1,0,52.1ZM46.517,26.05a1.861,1.861,0,0,0-1.861,1.861v3.721a1.861,1.861,0,0,0,1.861,1.861h3.721A1.861,1.861,0,0,0,52.1,31.632V27.91a1.861,1.861,0,0,0-1.861-1.861Z" fill="#b8b8b8"/>
</svg>
