<svg xmlns="http://www.w3.org/2000/svg" width="59.55" height="59.542" viewBox="0 0 59.55 59.542">
  <path id="location-arrow" d="M59.243,3.933,32.177,58.062a2.481,2.481,0,0,1-2.41,1.48,3.579,3.579,0,0,1-.635-.084,2.553,2.553,0,0,1-1.5-.951,2.655,2.655,0,0,1-.569-1.67V32.477H2.7a2.663,2.663,0,0,1-1.67-.571,2.553,2.553,0,0,1-.951-1.5A2.74,2.74,0,0,1,.25,28.63a2.55,2.55,0,0,1,1.226-1.269L55.605.3A2.541,2.541,0,0,1,56.831,0a2.516,2.516,0,0,1,1.9.8,2.518,2.518,0,0,1,.782,1.459A2.578,2.578,0,0,1,59.243,3.933Z" transform="translate(-0.005)" fill="#133c8b"/>
</svg>
